<svg xmlns="http://www.w3.org/2000/svg" style="max-width:850px" id="mermaid-1567542729025" width="100%" height="100%" viewBox="-50 -10 850 590"><style>#mermaid-1567542729025 .actor{stroke:#999;fill:#eee}#mermaid-1567542729025 text.actor{fill:#333;stroke:none}#mermaid-1567542729025 .actor-line{stroke:#666}#mermaid-1567542729025 .messageLine0,#mermaid-1567542729025 .messageLine1{stroke-width:1.5;stroke-dasharray:&apos;2 2&apos;;stroke:#333}#mermaid-1567542729025 #arrowhead,#mermaid-1567542729025 #sequencenumber{fill:#333}#mermaid-1567542729025 .sequenceNumber{fill:#fff}#mermaid-1567542729025 #crosshead path{fill:#333!important;stroke:#333!important}#mermaid-1567542729025 .messageText{fill:#333;stroke:none}#mermaid-1567542729025 .labelBox{stroke:#999;fill:#eee}#mermaid-1567542729025 .labelText,#mermaid-1567542729025 .loopText{fill:#333;stroke:none}#mermaid-1567542729025 .loopLine{stroke-width:2;stroke-dasharray:&apos;2 2&apos;;stroke:#999}#mermaid-1567542729025 .activation0{fill:#f4f4f4;stroke:#666}#mermaid-1567542729025 .sequenceNumber{margin:10px}</style><style>#mermaid-1567542729025{color:rgba(0,0,0,.65)}</style><g><line id="actor6058" x1="75" x2="75" y1="5" y2="570" stroke="#999" stroke-width=".5" class="actor-line"/><rect width="150" height="65" x="0" y="0" fill="#eaeaea" stroke="#666" class="actor" rx="3" ry="3"/><text style="text-anchor:middle;font-size:14px;font-family:Open-Sans,sans-serif" x="75" y="32.5" alignment-baseline="central" class="actor" dominant-baseline="central"><tspan x="75" dy="-14">WM Receiver</tspan></text><text style="text-anchor:middle;font-size:14px;font-family:Open-Sans,sans-serif" x="75" y="32.5" alignment-baseline="central" class="actor" dominant-baseline="central"><tspan x="75" dy="14">(Website&apos;s Wallet)</tspan></text></g><g><line id="actor6059" x1="275" x2="275" y1="5" y2="570" stroke="#999" stroke-width=".5" class="actor-line"/><rect width="150" height="65" x="200" y="0" fill="#eaeaea" stroke="#666" class="actor" rx="3" ry="3"/><text style="text-anchor:middle;font-size:14px;font-family:Open-Sans,sans-serif" x="275" y="32.5" alignment-baseline="central" class="actor" dominant-baseline="central"><tspan x="275" dy="0">Web Page</tspan></text></g><g><line id="actor6060" x1="475" x2="475" y1="5" y2="570" stroke="#999" stroke-width=".5" class="actor-line"/><rect width="150" height="65" x="400" y="0" fill="#eaeaea" stroke="#666" class="actor" rx="3" ry="3"/><text style="text-anchor:middle;font-size:14px;font-family:Open-Sans,sans-serif" x="475" y="32.5" alignment-baseline="central" class="actor" dominant-baseline="central"><tspan x="475" dy="-14">User Agent</tspan></text><text style="text-anchor:middle;font-size:14px;font-family:Open-Sans,sans-serif" x="475" y="32.5" alignment-baseline="central" class="actor" dominant-baseline="central"><tspan x="475" dy="14">(Browser)</tspan></text></g><g><line id="actor6061" x1="675" x2="675" y1="5" y2="570" stroke="#999" stroke-width=".5" class="actor-line"/><rect width="150" height="65" x="600" y="0" fill="#eaeaea" stroke="#666" class="actor" rx="3" ry="3"/><text style="text-anchor:middle;font-size:14px;font-family:Open-Sans,sans-serif" x="675" y="32.5" alignment-baseline="central" class="actor" dominant-baseline="central"><tspan x="675" dy="-14">WM Sender</tspan></text><text style="text-anchor:middle;font-size:14px;font-family:Open-Sans,sans-serif" x="675" y="32.5" alignment-baseline="central" class="actor" dominant-baseline="central"><tspan x="675" dy="14">(User&apos;s Wallet)</tspan></text></g><defs><marker id="arrowhead" markerHeight="4" markerWidth="6" orient="auto" refX="5" refY="2"><path d="M 0,0 V 4 L6,2 Z"/></marker></defs><defs><marker id="crosshead" markerHeight="8" markerWidth="15" orient="auto" refX="16" refY="4"><path style="stroke-dasharray:0,0" fill="#000" stroke="#000" stroke-width="1" d="M 9,2 V 6 L16,4 Z"/><path style="stroke-dasharray:0,0" fill="none" stroke="#000" stroke-width="1" d="M 0,1 L 6,7 M 6,1 L 0,7"/></marker></defs><defs><marker id="sequencenumber" markerHeight="40" markerWidth="60" orient="auto" refX="15" refY="15"><circle cx="15" cy="15" r="6"/></marker></defs><g><text style="text-anchor:middle" x="375" y="103" class="messageText">[parse monetization meta tag]</text><line style="stroke-dasharray:3,3;fill:none" x1="475" x2="275" y1="110" y2="110" stroke="#000" stroke-width="2" marker-end="url(#arrowhead)" marker-start="url(#sequencenumber)" class="messageLine1"/><text x="475" y="114" class="sequenceNumber" font-family="sans-serif" font-size="12" text-anchor="middle" textLength="16">1</text></g><g><text style="text-anchor:middle" x="475" y="148" class="messageText">Calculate Rate (url)</text><path style="fill:none" stroke="#000" stroke-width="2" marker-end="url(#arrowhead)" marker-start="url(#sequencenumber)" d="M 475,155 C 535,145 535,185 475,175" class="messageLine0"/><text x="475" y="159" class="sequenceNumber" font-family="sans-serif" font-size="12" text-anchor="middle" textLength="16">2</text></g><g><text style="text-anchor:middle" x="375" y="223" class="messageText">[generate session id]</text><line style="stroke-dasharray:3,3;fill:none" x1="475" x2="275" y1="230" y2="230" stroke="#000" stroke-width="2" marker-end="url(#arrowhead)" marker-start="url(#sequencenumber)" class="messageLine1"/><text x="475" y="234" class="sequenceNumber" font-family="sans-serif" font-size="12" text-anchor="middle" textLength="16">3</text></g><g><text style="text-anchor:middle" x="275" y="268" class="messageText">Get Receiver Address and Secret (paymentPointer, sessionId)</text><line style="fill:none" x1="475" x2="75" y1="275" y2="275" stroke="#000" stroke-width="2" marker-end="url(#arrowhead)" marker-start="url(#sequencenumber)" class="messageLine0"/><text x="475" y="279" class="sequenceNumber" font-family="sans-serif" font-size="12" text-anchor="middle" textLength="16">4</text></g><g><rect width="10" height="293" x="70" y="277" fill="#EDF2AE" stroke="#666" class="activation0" rx="0" ry="0"/></g><g><text style="text-anchor:middle" x="575" y="338" class="messageText">Send Payment (receiverAddress, amount)</text><line style="fill:none" x1="475" x2="675" y1="345" y2="345" stroke="#000" stroke-width="2" marker-end="url(#arrowhead)" marker-start="url(#sequencenumber)" class="messageLine0"/><text x="475" y="349" class="sequenceNumber" font-family="sans-serif" font-size="12" text-anchor="middle" textLength="16">5</text></g><g><rect width="10" height="223" x="670" y="347" fill="#EDF2AE" stroke="#666" class="activation0" rx="0" ry="0"/></g><g><text style="text-anchor:middle" x="375" y="383" class="messageText">Send Payment (amount)</text><line style="fill:none" x1="670" x2="80" y1="390" y2="390" stroke="#000" stroke-width="2" marker-end="url(#arrowhead)" marker-start="url(#sequencenumber)" class="messageLine0"/><text x="670" y="394" class="sequenceNumber" font-family="sans-serif" font-size="12" text-anchor="middle" textLength="16">6</text></g><g><text style="text-anchor:middle" x="572.5" y="428" class="messageText">Payment Sent (amount)</text><line style="fill:none" x1="670" x2="475" y1="435" y2="435" stroke="#000" stroke-width="2" marker-end="url(#arrowhead)" marker-start="url(#sequencenumber)" class="messageLine0"/><text x="670" y="439" class="sequenceNumber" font-family="sans-serif" font-size="12" text-anchor="middle" textLength="16">7</text></g><g><text style="text-anchor:middle" x="375" y="473" class="messageText">Payment Sent (amount, sessionId)</text><line style="fill:none" x1="475" x2="275" y1="480" y2="480" stroke="#000" stroke-width="2" marker-end="url(#arrowhead)" marker-start="url(#sequencenumber)" class="messageLine0"/><text x="475" y="484" class="sequenceNumber" font-family="sans-serif" font-size="12" text-anchor="middle" textLength="16">8</text></g><g><text style="text-anchor:middle" x="177.5" y="543" class="messageText">Get Payments (sessionId)</text><line style="fill:none" x1="275" x2="80" y1="550" y2="550" stroke="#000" stroke-width="2" marker-end="url(#arrowhead)" marker-start="url(#sequencenumber)" class="messageLine0"/><text x="275" y="554" class="sequenceNumber" font-family="sans-serif" font-size="12" text-anchor="middle" textLength="16">9</text></g><g><line x1="60" x2="285" y1="490" y2="490" class="loopLine"/><line x1="285" x2="285" y1="490" y2="560" class="loopLine"/><line x1="60" x2="285" y1="560" y2="560" class="loopLine"/><line x1="60" x2="60" y1="490" y2="560" class="loopLine"/><polygon points="60 490 110 490 110 503 101.6 510 60 510" class="labelBox"/><text x="67.5" y="505" class="labelText"><tspan x="67.5">opt</tspan></text><text style="text-anchor:middle" x="172.5" y="505" class="loopText"><tspan x="172.5">[ Confirm Payments ]</tspan></text></g><g><line x1="50" x2="690" y1="285" y2="285" class="loopLine"/><line x1="690" x2="690" y1="285" y2="570" class="loopLine"/><line x1="50" x2="690" y1="570" y2="570" class="loopLine"/><line x1="50" x2="50" y1="285" y2="570" class="loopLine"/><polygon points="50 285 100 285 100 298 91.6 305 50 305" class="labelBox"/><text x="57.5" y="300" class="labelText"><tspan x="57.5">loop</tspan></text><text style="text-anchor:middle" x="370" y="300" class="loopText"><tspan x="370">[ Streaming Micropayments (possibly throughput limited by user&apos;s wallet) ]</tspan></text></g></svg>